<?xml version="1.0" encoding="UTF-8" standalone="no"?>
<!DOCTYPE svg PUBLIC "-//W3C//DTD SVG 1.1//EN" "http://www.w3.org/Graphics/SVG/1.1/DTD/svg11.dtd">
<svg width="100%" height="193px" viewBox="0 0 157 292" version="1.1" xmlns="http://www.w3.org/2000/svg" xmlns:xlink="http://www.w3.org/1999/xlink" xml:space="preserve" xmlns:serif="http://www.serif.com/" style="fill-rule:evenodd;clip-rule:evenodd;stroke-linejoin:round;stroke-miterlimit:2;">
    <g transform="matrix(1,0,0,1,-342.471,-151.687)">
        <g id="Layer-1" serif:id="Layer 1">
            <g transform="matrix(1,0,0,1,498.713,384.172)">
                <path d="M0,-2.135L-0.018,-2.135L-1.107,0.775L-1.607,0.775L-2.689,-2.135L-2.702,-2.135L-2.702,0.775L-3.427,0.775L-3.427,-2.909L-2.36,-2.909L-1.357,-0.3L-0.357,-2.909L0.706,-2.909L0.706,0.775L-0.001,0.775L-0.001,-2.135L0,-2.135ZM-5.905,-2.295L-7.005,-2.295L-7.005,-2.91L-4.044,-2.91L-4.044,-2.295L-5.137,-2.295L-5.137,0.775L-5.905,0.775L-5.905,-2.295Z" style="fill:rgb(231,111,0);fill-rule:nonzero;"/>
            </g>
            <g transform="matrix(-0.0891246,0.99602,0.99602,0.0891246,422.273,307.378)">
                <path d="M1.642,-27.876C1.642,-27.876 6.755,-35.1 7.088,-21.922C7.478,-5.957 6.496,2.096 1.642,19.216C1.642,19.216 4.102,24.051 6.017,30.668C26.242,-6.874 12.955,-57.773 1.642,-27.876" style="fill:rgb(83,130,161);fill-rule:nonzero;"/>
            </g>
            <g transform="matrix(-0.0882476,0.996099,0.996099,0.0882476,419.135,281.568)">
                <path d="M5.637,-29.18C5.637,-29.18 12.722,-37.167 12.915,-23.994C13.162,-6.956 12.123,6.389 5.637,29.065C5.637,29.065 8.589,32.544 9.914,37.718C27.899,-8.265 19.842,-61.969 5.637,-29.18" style="fill:rgb(83,130,161);fill-rule:nonzero;"/>
            </g>
            <g transform="matrix(0.567272,0.823531,0.823531,-0.567272,416.729,238.864)">
                <path d="M14.547,6.031C29.183,7.677 30.505,-8.042 30.505,-8.042C30.505,-8.042 33.991,19.334 14.547,19.053C-3.595,18.777 -14.219,16.301 -10.304,66.629C-10.304,66.629 -35.089,0.47 14.547,6.031" style="fill:rgb(231,111,0);fill-rule:nonzero;"/>
            </g>
            <g transform="matrix(1,0,0,1,481.788,344.74)">
                <path d="M0,-21.997C0,-21.997 5.661,-17.331 -6.236,-13.723C-28.86,-6.869 -100.4,-4.799 -120.274,-13.449C-127.418,-16.557 -114.021,-20.87 -109.807,-21.775C-105.412,-22.728 -102.9,-22.551 -102.9,-22.551C-110.845,-28.146 -154.253,-11.56 -124.949,-6.81C-45.033,6.149 20.729,-12.646 0,-21.997" style="fill:rgb(83,130,161);fill-rule:nonzero;"/>
            </g>
            <g transform="matrix(1,0,0,1,398.041,282.853)">
                <path d="M0,-20.958C0,-20.958 -36.391,-12.315 -12.887,-9.176C-2.963,-7.848 16.819,-8.148 35.247,-9.692C50.307,-10.962 65.429,-13.663 65.429,-13.663C65.429,-13.663 60.118,-11.389 56.276,-8.766C19.323,0.953 -52.064,-3.569 -31.513,-13.51C-14.132,-21.911 0,-20.958 0,-20.958" style="fill:rgb(83,130,161);fill-rule:nonzero;"/>
            </g>
            <g transform="matrix(1,0,0,1,463.319,253.864)">
                <path d="M0,44.52C37.566,25 20.197,6.241 8.073,8.769C5.103,9.387 3.777,9.923 3.777,9.923C3.777,9.923 4.881,8.195 6.987,7.447C30.97,-0.985 49.414,32.315 -0.755,45.504C-0.755,45.505 -0.173,44.984 0,44.52" style="fill:rgb(83,130,161);fill-rule:nonzero;"/>
            </g>
            <g transform="matrix(-0.984225,-0.176921,-0.176921,0.984225,399.366,257.847)">
                <path d="M-21.872,-111.793C-21.872,-111.793 -46.03,-94.991 -11.795,-56.322C15.656,-25.306 -11.63,-15.34 -21.872,-0.19C-0.168,-13.683 16.203,-26.051 9.49,-41.508C-0.362,-64.198 -35.982,-80.743 -21.872,-111.793" style="fill:rgb(231,111,0);fill-rule:nonzero;"/>
            </g>
            <g transform="matrix(0.106446,0.994318,0.994318,-0.106446,422.547,312.083)">
                <path d="M36.758,-24.87C42.892,10.738 45.216,66.175 28.392,69.295C28.392,69.295 34.554,66.101 36.758,38.43C39.241,7.212 34.527,-30.457 28.441,-52.448C28.441,-52.447 32.725,-48.271 36.758,-24.87" style="fill:rgb(83,130,161);fill-rule:nonzero;"/>
            </g>
            <g transform="matrix(1,0,0,1,405.208,381.305)">
                <path d="M0,45.757L0,12.976C0,4.601 -4.775,-0.924 -16.291,-0.924C-23.014,-0.924 -28.902,0.735 -33.689,2.853L-32.307,8.655C-28.539,7.273 -23.66,5.985 -18.873,5.985C-12.239,5.985 -9.386,8.655 -9.386,14.177L-9.386,18.321L-12.696,18.321C-28.814,18.321 -36.084,24.577 -36.084,33.967C-36.084,42.071 -31.293,46.679 -22.272,46.679C-16.473,46.679 -12.145,44.284 -8.098,40.78L-7.363,45.757L0,45.757ZM-9.386,35.166C-12.787,38.116 -16.379,39.773 -19.604,39.773C-24.205,39.773 -26.691,37.013 -26.691,32.587C-26.691,27.8 -24.027,24.3 -13.341,24.3L-9.386,24.3L-9.386,35.166" style="fill:rgb(231,111,0);fill-rule:nonzero;"/>
            </g>
            <g transform="matrix(1,0,0,1,436.532,381.211)">
                <path d="M0,45.849L-11.706,45.849L-25.795,0L-15.571,0L-6.83,28.17L-4.887,36.642C-0.464,24.393 2.664,11.966 4.228,0L14.173,0C11.509,15.098 6.714,31.669 0,45.849" style="fill:rgb(231,111,0);fill-rule:nonzero;"/>
            </g>
            <g transform="matrix(1,0,0,1,490.823,381.305)">
                <path d="M0,45.757L0,12.976C0,4.601 -4.787,-0.924 -16.289,-0.924C-23.017,-0.924 -28.907,0.735 -33.691,2.853L-32.311,8.655C-28.542,7.273 -23.655,5.985 -18.871,5.985C-12.242,5.985 -9.384,8.655 -9.384,14.177L-9.384,18.321L-12.7,18.321C-28.821,18.321 -36.089,24.577 -36.089,33.967C-36.089,42.071 -31.302,46.679 -22.282,46.679C-16.48,46.679 -12.153,44.284 -8.1,40.78L-7.363,45.757L0,45.757ZM-9.384,35.166C-12.792,38.116 -16.391,39.773 -19.615,39.773C-24.208,39.773 -26.701,37.013 -26.701,32.587C-26.701,27.8 -24.031,24.3 -13.346,24.3L-9.384,24.3L-9.384,35.166" style="fill:rgb(231,111,0);fill-rule:nonzero;"/>
            </g>
            <g transform="matrix(1,0,0,1,358.833,373.651)">
                <path d="M0,61.196C-2.676,65.102 -6.997,68.192 -11.729,69.942L-16.362,64.489C-12.761,62.641 -9.673,59.655 -8.238,56.876C-6.997,54.405 -6.482,51.217 -6.482,43.598L-6.482,-8.746L3.489,-8.746L3.489,42.882C3.488,53.067 2.674,57.182 0,61.196" style="fill:rgb(231,111,0);fill-rule:nonzero;"/>
            </g>
        </g>
    </g>
</svg>
